<?xml version="1.0" encoding="UTF-8"?>
<!DOCTYPE svg PUBLIC "-//W3C//DTD SVG 1.1//EN" "http://www.w3.org/Graphics/SVG/1.1/DTD/svg11.dtd">
<svg version="1.2" width="203.2mm" height="203.2mm" viewBox="0 0 20320 20320" preserveAspectRatio="xMidYMid" fill-rule="evenodd" stroke-width="28.222" stroke-linejoin="round" xmlns="http://www.w3.org/2000/svg" xmlns:ooo="http://xml.openoffice.org/svg/export" xmlns:xlink="http://www.w3.org/1999/xlink" xmlns:presentation="http://sun.com/xmlns/staroffice/presentation" xmlns:smil="http://www.w3.org/2001/SMIL20/" xmlns:anim="urn:oasis:names:tc:opendocument:xmlns:animation:1.0" xmlns:svg="urn:oasis:names:tc:opendocument:xmlns:svg-compatible:1.0" xml:space="preserve">
 <defs class="ClipPathGroup">
  <clipPath id="presentation_clip_path" clipPathUnits="userSpaceOnUse">
   <rect x="0" y="0" width="20320" height="20320"/>
  </clipPath>
  <clipPath id="presentation_clip_path_shrink" clipPathUnits="userSpaceOnUse">
   <rect x="20" y="20" width="20280" height="20280"/>
  </clipPath>
 </defs>
 <defs class="TextShapeIndex">
  <g ooo:slide="id1" ooo:id-list="id3 id4 id5 id6 id7 id8 id9 id10 id11 id12 id13 id14 id15 id16 id17 id18 id19 id20"/>
 </defs>
 <defs class="EmbeddedBulletChars">
  <g id="bullet-char-template-57356" transform="scale(0.00048828125,-0.00048828125)">
   <path d="M 580,1141 L 1163,571 580,0 -4,571 580,1141 Z"/>
  </g>
  <g id="bullet-char-template-57354" transform="scale(0.00048828125,-0.00048828125)">
   <path d="M 8,1128 L 1137,1128 1137,0 8,0 8,1128 Z"/>
  </g>
  <g id="bullet-char-template-10146" transform="scale(0.00048828125,-0.00048828125)">
   <path d="M 174,0 L 602,739 174,1481 1456,739 174,0 Z M 1358,739 L 309,1346 659,739 1358,739 Z"/>
  </g>
  <g id="bullet-char-template-10132" transform="scale(0.00048828125,-0.00048828125)">
   <path d="M 2015,739 L 1276,0 717,0 1260,543 174,543 174,936 1260,936 717,1481 1274,1481 2015,739 Z"/>
  </g>
  <g id="bullet-char-template-10007" transform="scale(0.00048828125,-0.00048828125)">
   <path d="M 0,-2 C -7,14 -16,27 -25,37 L 356,567 C 262,823 215,952 215,954 215,979 228,992 255,992 264,992 276,990 289,987 310,991 331,999 354,1012 L 381,999 492,748 772,1049 836,1024 860,1049 C 881,1039 901,1025 922,1006 886,937 835,863 770,784 769,783 710,716 594,584 L 774,223 C 774,196 753,168 711,139 L 727,119 C 717,90 699,76 672,76 641,76 570,178 457,381 L 164,-76 C 142,-110 111,-127 72,-127 30,-127 9,-110 8,-76 1,-67 -2,-52 -2,-32 -2,-23 -1,-13 0,-2 Z"/>
  </g>
  <g id="bullet-char-template-10004" transform="scale(0.00048828125,-0.00048828125)">
   <path d="M 285,-33 C 182,-33 111,30 74,156 52,228 41,333 41,471 41,549 55,616 82,672 116,743 169,778 240,778 293,778 328,747 346,684 L 369,508 C 377,444 397,411 428,410 L 1163,1116 C 1174,1127 1196,1133 1229,1133 1271,1133 1292,1118 1292,1087 L 1292,965 C 1292,929 1282,901 1262,881 L 442,47 C 390,-6 338,-33 285,-33 Z"/>
  </g>
  <g id="bullet-char-template-9679" transform="scale(0.00048828125,-0.00048828125)">
   <path d="M 813,0 C 632,0 489,54 383,161 276,268 223,411 223,592 223,773 276,916 383,1023 489,1130 632,1184 813,1184 992,1184 1136,1130 1245,1023 1353,916 1407,772 1407,592 1407,412 1353,268 1245,161 1136,54 992,0 813,0 Z"/>
  </g>
  <g id="bullet-char-template-8226" transform="scale(0.00048828125,-0.00048828125)">
   <path d="M 346,457 C 273,457 209,483 155,535 101,586 74,649 74,723 74,796 101,859 155,911 209,963 273,989 346,989 419,989 480,963 531,910 582,859 608,796 608,723 608,648 583,586 532,535 482,483 420,457 346,457 Z"/>
  </g>
  <g id="bullet-char-template-8211" transform="scale(0.00048828125,-0.00048828125)">
   <path d="M -4,459 L 1135,459 1135,606 -4,606 -4,459 Z"/>
  </g>
  <g id="bullet-char-template-61548" transform="scale(0.00048828125,-0.00048828125)">
   <path d="M 173,740 C 173,903 231,1043 346,1159 462,1274 601,1332 765,1332 928,1332 1067,1274 1183,1159 1299,1043 1357,903 1357,740 1357,577 1299,437 1183,322 1067,206 928,148 765,148 601,148 462,206 346,322 231,437 173,577 173,740 Z"/>
  </g>
 </defs>
 <g>
  <g id="id2" class="Master_Slide">
   <g id="bg-id2" class="Background"/>
   <g id="bo-id2" class="BackgroundObjects"/>
  </g>
 </g>
 <g class="SlideGroup">
  <g>
   <g id="container-id1">
    <g id="id1" class="Slide" clip-path="url(#presentation_clip_path)">
     <g class="Page">
      <g class="com.sun.star.drawing.CustomShape">
       <g id="id3">
        <rect class="BoundingBox" stroke="none" fill="none" x="9595" y="1122" width="4212" height="4111"/>
        <path fill="rgb(241,204,0)" stroke="none" d="M 9818,2602 L 9818,2602 C 9744,2653 9685,2723 9646,2804 9607,2886 9591,2976 9598,3066 9605,3156 9636,3242 9687,3316 L 10852,5008 10852,5008 C 10903,5083 10973,5142 11055,5181 11136,5220 11226,5236 11316,5229 11406,5222 11492,5191 11567,5140 L 13582,3752 13582,3752 C 13657,3700 13716,3631 13755,3549 13794,3468 13810,3378 13803,3288 13796,3198 13765,3111 13714,3037 L 12548,1344 12549,1345 12549,1345 C 12497,1271 12428,1211 12346,1173 12265,1134 12175,1117 12085,1124 11995,1132 11908,1162 11834,1213 L 9818,2602 Z"/>
        <path fill="none" stroke="rgb(241,204,0)" d="M 9818,2602 L 9818,2602 C 9744,2653 9685,2723 9646,2804 9607,2886 9591,2976 9598,3066 9605,3156 9636,3242 9687,3316 L 10852,5008 10852,5008 C 10903,5083 10973,5142 11055,5181 11136,5220 11226,5236 11316,5229 11406,5222 11492,5191 11567,5140 L 13582,3752 13582,3752 C 13657,3700 13716,3631 13755,3549 13794,3468 13810,3378 13803,3288 13796,3198 13765,3111 13714,3037 L 12548,1344 12549,1345 12549,1345 C 12497,1271 12428,1211 12346,1173 12265,1134 12175,1117 12085,1124 11995,1132 11908,1162 11834,1213 L 9818,2602 Z"/>
       </g>
      </g>
      <g class="com.sun.star.drawing.CustomShape">
       <g id="id4">
        <rect class="BoundingBox" stroke="none" fill="none" x="11438" y="1447" width="865" height="732"/>
        <path fill="rgb(255,255,0)" stroke="none" d="M 11464,1882 L 11465,1881 C 11456,1887 11449,1895 11445,1904 11441,1913 11439,1923 11440,1933 11440,1943 11444,1953 11450,1962 L 11581,2152 11581,2152 C 11587,2160 11594,2167 11604,2171 11613,2176 11623,2178 11633,2177 11643,2176 11653,2173 11661,2167 L 12276,1744 12276,1744 C 12284,1738 12291,1730 12295,1721 12300,1712 12302,1702 12301,1692 12300,1681 12297,1672 12291,1663 L 12158,1473 12160,1473 12160,1473 C 12154,1464 12146,1458 12137,1453 12128,1449 12118,1447 12108,1448 12097,1449 12088,1452 12079,1458 L 11464,1882 Z"/>
        <path fill="none" stroke="rgb(241,204,0)" d="M 11464,1882 L 11465,1881 C 11456,1887 11449,1895 11445,1904 11441,1913 11439,1923 11440,1933 11440,1943 11444,1953 11450,1962 L 11581,2152 11581,2152 C 11587,2160 11594,2167 11604,2171 11613,2176 11623,2178 11633,2177 11643,2176 11653,2173 11661,2167 L 12276,1744 12276,1744 C 12284,1738 12291,1730 12295,1721 12300,1712 12302,1702 12301,1692 12300,1681 12297,1672 12291,1663 L 12158,1473 12160,1473 12160,1473 C 12154,1464 12146,1458 12137,1453 12128,1449 12118,1447 12108,1448 12097,1449 12088,1452 12079,1458 L 11464,1882 Z"/>
       </g>
      </g>
      <g class="com.sun.star.drawing.CustomShape">
       <g id="id5">
        <rect class="BoundingBox" stroke="none" fill="none" x="5433" y="3334" width="5232" height="4559"/>
        <path fill="rgb(241,204,0)" stroke="none" d="M 8692,6582 L 6721,7891 5434,5952 9376,3335 10663,5273 8692,6582 Z"/>
        <path fill="none" stroke="rgb(241,204,0)" d="M 8692,6582 L 6721,7891 5434,5952 9376,3335 10663,5273 8692,6582 Z"/>
       </g>
      </g>
      <g class="com.sun.star.drawing.CustomShape">
       <g id="id6">
        <rect class="BoundingBox" stroke="none" fill="none" x="3625" y="6599" width="2525" height="2329"/>
        <path fill="rgb(241,204,0)" stroke="none" d="M 5274,8346 L 4400,8926 3626,7761 5374,6600 6148,7766 5274,8346 Z"/>
        <path fill="none" stroke="rgb(241,204,0)" d="M 5274,8346 L 4400,8926 3626,7761 5374,6600 6148,7766 5274,8346 Z"/>
       </g>
      </g>
      <g class="com.sun.star.drawing.CustomShape">
       <g id="id7">
        <rect class="BoundingBox" stroke="none" fill="none" x="2705" y="8139" width="1383" height="1529"/>
        <path fill="rgb(241,204,0)" stroke="none" d="M 2766,8481 L 2766,8481 C 2746,8495 2730,8514 2719,8536 2709,8558 2704,8583 2706,8607 2708,8631 2716,8655 2730,8675 L 3371,9605 3372,9606 C 3385,9626 3404,9642 3426,9652 3449,9663 3473,9667 3498,9666 3522,9664 3545,9655 3566,9641 L 4025,9325 4025,9325 C 4045,9311 4062,9292 4072,9270 4083,9248 4087,9224 4085,9199 4083,9175 4075,9151 4061,9131 L 3420,8200 3420,8201 3420,8201 C 3406,8181 3387,8164 3365,8154 3343,8143 3318,8139 3294,8141 3269,8143 3246,8151 3226,8165 L 2766,8481 Z"/>
        <path fill="none" stroke="rgb(241,204,0)" d="M 2766,8481 L 2766,8481 C 2746,8495 2730,8514 2719,8536 2709,8558 2704,8583 2706,8607 2708,8631 2716,8655 2730,8675 L 3371,9605 3372,9606 C 3385,9626 3404,9642 3426,9652 3449,9663 3473,9667 3498,9666 3522,9664 3545,9655 3566,9641 L 4025,9325 4025,9325 C 4045,9311 4062,9292 4072,9270 4083,9248 4087,9224 4085,9199 4083,9175 4075,9151 4061,9131 L 3420,8200 3420,8201 3420,8201 C 3406,8181 3387,8164 3365,8154 3343,8143 3318,8139 3294,8141 3269,8143 3246,8151 3226,8165 L 2766,8481 Z"/>
       </g>
      </g>
      <g class="com.sun.star.drawing.CustomShape">
       <g id="id8">
        <rect class="BoundingBox" stroke="none" fill="none" x="4331" y="8086" width="4209" height="6732"/>
        <path fill="rgb(241,204,0)" stroke="none" d="M 7914,8087 L 8538,8087 4955,14816 4332,14816 7914,8087 Z"/>
        <path fill="none" stroke="rgb(241,204,0)" d="M 7914,8087 L 8538,8087 4955,14816 4332,14816 7914,8087 Z"/>
       </g>
      </g>
      <g class="com.sun.star.drawing.CustomShape">
       <g id="id9">
        <rect class="BoundingBox" stroke="none" fill="none" x="9222" y="8085" width="4629" height="6732"/>
        <path fill="rgb(241,204,0)" stroke="none" d="M 13162,14815 L 13849,14815 9909,8086 9223,8086 13162,14815 Z"/>
        <path fill="none" stroke="rgb(241,204,0)" d="M 13162,14815 L 13849,14815 9909,8086 9223,8086 13162,14815 Z"/>
       </g>
      </g>
      <g class="com.sun.star.drawing.CustomShape">
       <g id="id10">
        <rect class="BoundingBox" stroke="none" fill="none" x="8404" y="6980" width="845" height="844"/>
        <path fill="rgb(241,204,0)" stroke="none" d="M 9247,7402 C 9247,7475 9228,7548 9191,7612 9154,7676 9101,7729 9037,7766 8972,7803 8900,7822 8826,7822 8752,7822 8680,7803 8616,7766 8551,7729 8498,7676 8461,7612 8424,7548 8405,7475 8405,7402 8405,7328 8424,7255 8461,7191 8498,7127 8551,7074 8616,7037 8680,7000 8752,6981 8826,6981 8900,6981 8972,7000 9037,7037 9101,7074 9154,7127 9191,7191 9228,7255 9247,7328 9247,7402 L 9247,7402 Z"/>
        <path fill="none" stroke="rgb(241,204,0)" d="M 9247,7402 C 9247,7475 9228,7548 9191,7612 9154,7676 9101,7729 9037,7766 8972,7803 8900,7822 8826,7822 8752,7822 8680,7803 8616,7766 8551,7729 8498,7676 8461,7612 8424,7548 8405,7475 8405,7402 8405,7328 8424,7255 8461,7191 8498,7127 8551,7074 8616,7037 8680,7000 8752,6981 8826,6981 8900,6981 8972,7000 9037,7037 9101,7074 9154,7127 9191,7191 9228,7255 9247,7328 9247,7402 Z"/>
       </g>
      </g>
      <g class="com.sun.star.drawing.CustomShape">
       <g id="id11">
        <rect class="BoundingBox" stroke="none" fill="none" x="10573" y="6981" width="5310" height="4921"/>
        <path fill="rgb(241,204,0)" stroke="none" d="M 10574,8516 L 10631,8402 10694,8290 10763,8181 10839,8076 10919,7974 11006,7876 11097,7781 11194,7692 11295,7606 11401,7526 11512,7450 11626,7380 11744,7314 11865,7255 11989,7200 12117,7152 12246,7109 12378,7073 12512,7042 12647,7018 12784,6999 12921,6987 13059,6982 13197,6982 13334,6989 13471,7002 13608,7021 13743,7046 13876,7078 14008,7116 14137,7159 14264,7208 14388,7264 14509,7324 14626,7390 14740,7462 14849,7538 14955,7619 15055,7705 15151,7796 15242,7890 15327,7989 15407,8092 15482,8198 15550,8307 15612,8419 15669,8534 15718,8652 15762,8771 15799,8892 15829,9015 15852,9139 15868,9264 15878,9390 15881,9515 15877,9641 15866,9767 15848,9892 15824,10015 15792,10138 15754,10259 15710,10378 15659,10495 15602,10609 15538,10721 15469,10830 15393,10935 15312,11037 15226,11135 15134,11229 15037,11319 14936,11404 14830,11484 14719,11560 14605,11630 14487,11695 14366,11755 14241,11809 14114,11857 13984,11900 13117,9504 10574,8516 Z"/>
        <path fill="none" stroke="rgb(241,204,0)" d="M 10574,8516 L 10631,8402 10694,8290 10763,8181 10839,8076 10919,7974 11006,7876 11097,7781 11194,7692 11295,7606 11401,7526 11512,7450 11626,7380 11744,7314 11865,7255 11989,7200 12117,7152 12246,7109 12378,7073 12512,7042 12647,7018 12784,6999 12921,6987 13059,6982 13197,6982 13334,6989 13471,7002 13608,7021 13743,7046 13876,7078 14008,7116 14137,7159 14264,7208 14388,7264 14509,7324 14626,7390 14740,7462 14849,7538 14955,7619 15055,7705 15151,7796 15242,7890 15327,7989 15407,8092 15482,8198 15550,8307 15612,8419 15669,8534 15718,8652 15762,8771 15799,8892 15829,9015 15852,9139 15868,9264 15878,9390 15881,9515 15877,9641 15866,9767 15848,9892 15824,10015 15792,10138 15754,10259 15710,10378 15659,10495 15602,10609 15538,10721 15469,10830 15393,10935 15312,11037 15226,11135 15134,11229 15037,11319 14936,11404 14830,11484 14719,11560 14605,11630 14487,11695 14366,11755 14241,11809 14114,11857 13984,11900 13117,9504 10574,8516 Z"/>
       </g>
      </g>
      <g class="com.sun.star.drawing.CustomShape">
       <g id="id12">
        <rect class="BoundingBox" stroke="none" fill="none" x="15223" y="9139" width="2703" height="5463"/>
        <path fill="rgb(241,204,0)" stroke="none" d="M 15583,9140 L 15717,9164 15849,9194 15981,9232 16109,9276 16237,9327 16361,9384 16482,9448 16601,9517 16716,9594 16826,9674 16933,9761 17037,9855 17134,9952 17228,10055 17316,10161 17399,10273 17477,10389 17549,10508 17614,10631 17675,10757 17729,10885 17777,11018 17817,11151 17851,11286 17880,11424 17901,11562 17915,11701 17923,11841 17924,11981 17918,12120 17905,12258 17886,12396 17859,12534 17827,12668 17788,12802 17742,12932 17689,13061 17631,13186 17567,13308 17496,13427 17420,13541 17339,13651 17251,13757 17159,13859 17063,13955 16961,14047 16855,14132 16745,14212 16632,14286 16514,14354 16393,14417 16269,14472 16144,14521 16014,14564 15884,14600 15224,11893 15583,9140 Z"/>
        <path fill="none" stroke="rgb(241,204,0)" d="M 15583,9140 L 15717,9164 15849,9194 15981,9232 16109,9276 16237,9327 16361,9384 16482,9448 16601,9517 16716,9594 16826,9674 16933,9761 17037,9855 17134,9952 17228,10055 17316,10161 17399,10273 17477,10389 17549,10508 17614,10631 17675,10757 17729,10885 17777,11018 17817,11151 17851,11286 17880,11424 17901,11562 17915,11701 17923,11841 17924,11981 17918,12120 17905,12258 17886,12396 17859,12534 17827,12668 17788,12802 17742,12932 17689,13061 17631,13186 17567,13308 17496,13427 17420,13541 17339,13651 17251,13757 17159,13859 17063,13955 16961,14047 16855,14132 16745,14212 16632,14286 16514,14354 16393,14417 16269,14472 16144,14521 16014,14564 15884,14600 15224,11893 15583,9140 Z"/>
       </g>
      </g>
      <g class="com.sun.star.drawing.CustomShape">
       <g id="id13">
        <rect class="BoundingBox" stroke="none" fill="none" x="7275" y="9641" width="2778" height="5042"/>
        <path fill="rgb(241,204,0)" stroke="none" d="M 9811,9642 L 9673,9655 9536,9675 9400,9702 9266,9734 9134,9772 9004,9817 8877,9867 8752,9924 8631,9985 8514,10053 8400,10125 8290,10203 8185,10286 8085,10373 7989,10465 7899,10561 7814,10661 7734,10765 7661,10873 7593,10983 7532,11097 7477,11213 7428,11332 7386,11453 7350,11575 7322,11699 7300,11824 7285,11950 7277,12077 7276,12203 7282,12330 7295,12456 7315,12581 7342,12706 7376,12829 7416,12950 7463,13069 7516,13186 7576,13301 7642,13412 7714,13520 7792,13625 7875,13726 7964,13824 8059,13917 8158,14005 8262,14089 8370,14168 8483,14242 8599,14311 8720,14374 8843,14432 8970,14484 9099,14530 9230,14570 9364,14604 9499,14632 9636,14654 9774,14669 9912,14678 10051,14681 10040,12157 9811,9642 Z"/>
        <path fill="none" stroke="rgb(241,204,0)" d="M 9811,9642 L 9673,9655 9536,9675 9400,9702 9266,9734 9134,9772 9004,9817 8877,9867 8752,9924 8631,9985 8514,10053 8400,10125 8290,10203 8185,10286 8085,10373 7989,10465 7899,10561 7814,10661 7734,10765 7661,10873 7593,10983 7532,11097 7477,11213 7428,11332 7386,11453 7350,11575 7322,11699 7300,11824 7285,11950 7277,12077 7276,12203 7282,12330 7295,12456 7315,12581 7342,12706 7376,12829 7416,12950 7463,13069 7516,13186 7576,13301 7642,13412 7714,13520 7792,13625 7875,13726 7964,13824 8059,13917 8158,14005 8262,14089 8370,14168 8483,14242 8599,14311 8720,14374 8843,14432 8970,14484 9099,14530 9230,14570 9364,14604 9499,14632 9636,14654 9774,14669 9912,14678 10051,14681 10040,12157 9811,9642 Z"/>
       </g>
      </g>
      <g class="com.sun.star.drawing.CustomShape">
       <g id="id14">
        <rect class="BoundingBox" stroke="none" fill="none" x="14267" y="10874" width="2949" height="3738"/>
        <path fill="rgb(241,204,0)" stroke="none" d="M 17214,12743 C 17214,13070 17146,13392 17017,13676 16887,13960 16701,14196 16477,14360 16254,14524 16000,14610 15741,14610 15482,14610 15228,14524 15004,14360 14781,14196 14595,13960 14465,13676 14336,13392 14268,13070 14268,12743 14268,12415 14336,12093 14465,11809 14595,11525 14781,11289 15004,11125 15228,10961 15482,10875 15741,10875 16000,10875 16254,10961 16477,11125 16701,11289 16887,11525 17017,11809 17146,12093 17214,12415 17214,12743 L 17214,12743 Z"/>
        <path fill="none" stroke="rgb(241,204,0)" d="M 17214,12743 C 17214,13070 17146,13392 17017,13676 16887,13960 16701,14196 16477,14360 16254,14524 16000,14610 15741,14610 15482,14610 15228,14524 15004,14360 14781,14196 14595,13960 14465,13676 14336,13392 14268,13070 14268,12743 14268,12415 14336,12093 14465,11809 14595,11525 14781,11289 15004,11125 15228,10961 15482,10875 15741,10875 16000,10875 16254,10961 16477,11125 16701,11289 16887,11525 17017,11809 17146,12093 17214,12415 17214,12743 L 17214,12743 Z"/>
       </g>
      </g>
      <g class="com.sun.star.drawing.CustomShape">
       <g id="id15">
        <rect class="BoundingBox" stroke="none" fill="none" x="12320" y="8504" width="3369" height="4209"/>
        <path fill="rgb(241,204,0)" stroke="none" d="M 15687,10608 C 15687,10977 15609,11340 15462,11660 15314,11979 15101,12245 14846,12429 14590,12614 14299,12711 14004,12711 13709,12711 13418,12614 13163,12429 12907,12245 12694,11979 12546,11660 12399,11340 12321,10977 12321,10608 12321,10239 12399,9876 12546,9557 12694,9237 12907,8971 13162,8787 13418,8602 13709,8505 14004,8505 14299,8505 14590,8602 14845,8787 15101,8971 15314,9237 15462,9556 15609,9876 15687,10239 15687,10608 L 15687,10608 Z"/>
        <path fill="none" stroke="rgb(241,204,0)" d="M 15687,10608 C 15687,10977 15609,11340 15462,11660 15314,11979 15101,12245 14846,12429 14590,12614 14299,12711 14004,12711 13709,12711 13418,12614 13163,12429 12907,12245 12694,11979 12546,11660 12399,11340 12321,10977 12321,10608 12321,10239 12399,9876 12546,9557 12694,9237 12907,8971 13162,8787 13418,8602 13709,8505 14004,8505 14299,8505 14590,8602 14845,8787 15101,8971 15314,9237 15462,9556 15609,9876 15687,10239 15687,10608 L 15687,10608 Z"/>
       </g>
      </g>
      <g class="com.sun.star.drawing.CustomShape">
       <g id="id16">
        <rect class="BoundingBox" stroke="none" fill="none" x="9798" y="9634" width="2948" height="5051"/>
        <path fill="rgb(241,204,0)" stroke="none" d="M 9799,9635 L 12744,14683 9799,14683 9799,9635 9799,9635 Z"/>
        <path fill="none" stroke="rgb(241,204,0)" d="M 9799,9635 L 12744,14683 9799,14683 9799,9635 9799,9635 Z"/>
       </g>
      </g>
      <g class="com.sun.star.drawing.CustomShape">
       <g id="id17">
        <rect class="BoundingBox" stroke="none" fill="none" x="10636" y="8504" width="3369" height="6160"/>
        <path fill="rgb(241,204,0)" stroke="none" d="M 14003,14662 L 10637,8505 14003,8505 14003,14662 14003,14662 Z"/>
        <path fill="none" stroke="rgb(241,204,0)" d="M 14003,14662 L 10637,8505 14003,8505 14003,14662 14003,14662 Z"/>
       </g>
      </g>
      <g class="com.sun.star.drawing.CustomShape">
       <g id="id18">
        <rect class="BoundingBox" stroke="none" fill="none" x="14003" y="12601" width="1684" height="2022"/>
        <path fill="rgb(241,204,0)" stroke="none" d="M 14845,14621 L 14004,14621 14004,12602 15685,12602 15685,14621 14845,14621 Z"/>
        <path fill="none" stroke="rgb(241,204,0)" d="M 14845,14621 L 14004,14621 14004,12602 15685,12602 15685,14621 14845,14621 Z"/>
       </g>
      </g>
      <g class="com.sun.star.drawing.EllipseShape">
       <g id="id19">
        <rect class="BoundingBox" stroke="none" fill="none" x="1704" y="2241" width="15724" height="16886"/>
        <path fill="none" stroke="rgb(241,204,0)" stroke-width="212" stroke-linejoin="round" d="M 17320,15119 C 16593,16263 15600,17215 14426,17893 13147,18631 11697,19020 10221,19020 8744,19020 7294,18631 6015,17893 4737,17155 3675,16093 2937,14815 2199,13536 1810,12086 1810,10610 1810,9133 2199,7683 2937,6404 3675,5126 4737,4064 6015,3326 6831,2855 7720,2524 8645,2348"/>
       </g>
      </g>
      <g class="com.sun.star.drawing.EllipseShape">
       <g id="id20">
        <rect class="BoundingBox" stroke="none" fill="none" x="15219" y="3862" width="3401" height="5626"/>
        <path fill="none" stroke="rgb(241,204,0)" stroke-width="212" stroke-linejoin="round" d="M 15325,3969 C 16208,4660 16949,5523 17504,6509 18004,7397 18346,8369 18513,9380"/>
       </g>
      </g>
     </g>
    </g>
   </g>
  </g>
 </g>
</svg>